; Drill file
; Format: 3.3 (000.000)
M48
METRIC
T01C0.4
T02C0.8
T03C1.0
%
G05
G90
T01
X021490Y011770
X018120Y018080
X019390Y018910
X021930Y020340
X023680Y020500
X017800Y021810
X010500Y022250
X033080Y025580
X034350Y025580
X035620Y025580
X036930Y025580
T02
X006980Y019300
X006980Y021840
X006980Y024380
X006980Y026920
X014440Y025110
X016980Y025110
X019520Y025110
X022060Y025110
X024600Y025110
X027140Y025110
X037790Y015360
T03
X008570Y002100
X008570Y006600
X007600Y010710
X007600Y013250
X015070Y006600
X015070Y002100
X021910Y002100
X021910Y006600
X028410Y006600
X028410Y002100
X035240Y002100
X035240Y006600
X041740Y006600
X041740Y002100
M30
