%FSLAX34Y34*%
%MOMM*%
%LNCOPPER_BOTTOM*%
G71*
G01*
%ADD10C,0.900*%
%ADD11C,2.400*%
%ADD12C,2.600*%
%ADD13R,2.070X1.359*%
%ADD14R,1.359X2.070*%
%ADD15C,1.300*%
%ADD16R,2.100X2.400*%
%ADD17C,1.100*%
%ADD18C,1.610*%
%ADD19R,2.700X1.400*%
%ADD20C,1.200*%
%ADD21C,2.100*%
%ADD22R,2.100X2.200*%
%ADD23R,2.400X2.100*%
%ADD24C,2.200*%
%ADD25C,2.800*%
%ADD26C,0.959*%
%ADD27C,1.500*%
%ADD28R,2.300X5.800*%
%ADD29C,1.400*%
%ADD30R,2.800X2.400*%
%ADD31R,1.460X2.832*%
%ADD32C,1.600*%
%ADD33C,0.930*%
%ADD34C,0.559*%
%ADD35C,1.157*%
%ADD36C,1.141*%
%ADD37C,0.600*%
%ADD38C,0.845*%
%ADD39C,1.340*%
%ADD40C,0.660*%
%ADD41C,0.100*%
%ADD42C,1.600*%
%ADD43C,1.800*%
%ADD44R,1.270X0.559*%
%ADD45R,0.559X1.270*%
%ADD46C,0.500*%
%ADD47R,1.300X1.600*%
%ADD48C,0.300*%
%ADD49C,0.810*%
%ADD50R,1.900X0.600*%
%ADD51C,0.400*%
%ADD52C,1.300*%
%ADD53R,1.300X1.400*%
%ADD54R,1.600X1.300*%
%ADD55C,1.400*%
%ADD56C,2.000*%
%ADD57C,0.159*%
%ADD58C,0.700*%
%ADD59R,1.500X5.000*%
%ADD60R,2.000X1.600*%
%ADD61R,0.660X2.032*%
%LPD*%
G36*
X-7938Y313531D02*
X492062Y313531D01*
X492062Y-19469D01*
X-7938Y-19469D01*
X-7938Y313531D01*
G37*
%LPC*%
G54D10*
X63103Y303337D02*
X436166Y303337D01*
G54D10*
G75*
G01X436166Y125D02*
G03X452041Y16000I0J15875D01*
G01*
G54D10*
G75*
G01X47228Y16000D02*
G03X63103Y125I15875J0D01*
G01*
G54D10*
X46831Y287462D02*
X46831Y162844D01*
G54D10*
X452041Y287462D02*
X452041Y16000D01*
G54D10*
X436166Y125D02*
X63103Y125D01*
G36*
X57850Y205006D02*
X81850Y205006D01*
X81850Y181006D01*
X57850Y181006D01*
X57850Y205006D01*
G37*
X69849Y218406D02*
G54D11*
D03*
X69850Y243806D02*
G54D11*
D03*
X69850Y269206D02*
G54D11*
D03*
X150748Y66006D02*
G54D12*
D03*
X85724Y66006D02*
G54D12*
D03*
X85724Y20998D02*
G54D12*
D03*
X150748Y20998D02*
G54D12*
D03*
X219074Y66006D02*
G54D12*
D03*
X284098Y66006D02*
G54D12*
D03*
X284098Y20997D02*
G54D12*
D03*
X219075Y20998D02*
G54D12*
D03*
X352424Y66006D02*
G54D12*
D03*
X417448Y66006D02*
G54D12*
D03*
X417448Y20997D02*
G54D12*
D03*
X352425Y20998D02*
G54D12*
D03*
X216698Y189133D02*
G54D13*
D03*
X216698Y181132D02*
G54D13*
D03*
X216698Y173131D02*
G54D13*
D03*
X216698Y165130D02*
G54D13*
D03*
X216698Y157129D02*
G54D13*
D03*
X216698Y149128D02*
G54D13*
D03*
X216698Y141127D02*
G54D13*
D03*
X216698Y133126D02*
G54D13*
D03*
X130846Y133126D02*
G54D13*
D03*
X130846Y141127D02*
G54D13*
D03*
X130846Y149128D02*
G54D13*
D03*
X130846Y157129D02*
G54D13*
D03*
X130846Y165130D02*
G54D13*
D03*
X130846Y173131D02*
G54D13*
D03*
X130846Y181132D02*
G54D13*
D03*
X130846Y189133D02*
G54D13*
D03*
X145782Y204068D02*
G54D14*
D03*
X153782Y204068D02*
G54D14*
D03*
X161784Y204068D02*
G54D14*
D03*
X169784Y204068D02*
G54D14*
D03*
X177786Y204068D02*
G54D14*
D03*
X185786Y204068D02*
G54D14*
D03*
X193788Y204068D02*
G54D14*
D03*
X201788Y204068D02*
G54D14*
D03*
X201788Y118216D02*
G54D14*
D03*
X193788Y118216D02*
G54D14*
D03*
X185786Y118216D02*
G54D14*
D03*
X177786Y118216D02*
G54D14*
D03*
X169784Y118216D02*
G54D14*
D03*
X161784Y118216D02*
G54D14*
D03*
X153782Y118216D02*
G54D14*
D03*
X145782Y118216D02*
G54D14*
D03*
G36*
X132436Y239129D02*
X132436Y263129D01*
X156436Y263129D01*
X156436Y239129D01*
X132436Y239129D01*
G37*
X169835Y251129D02*
G54D11*
D03*
X195235Y251128D02*
G54D11*
D03*
X220635Y251128D02*
G54D11*
D03*
X246035Y251128D02*
G54D11*
D03*
X271435Y251128D02*
G54D11*
D03*
G54D15*
X220667Y165130D02*
X226941Y165130D01*
X232002Y160069D01*
X232002Y154974D01*
X226100Y149072D01*
X209828Y149072D01*
X201890Y141134D01*
X134815Y141127D01*
X253137Y205427D02*
G54D16*
D03*
X274518Y205427D02*
G54D16*
D03*
G54D17*
X274518Y205427D02*
X274518Y248045D01*
X271435Y251128D01*
X178027Y218092D02*
G54D18*
D03*
G54D17*
X177786Y204068D02*
X177786Y217851D01*
X178027Y218092D01*
G54D17*
X185786Y206052D02*
X185786Y227424D01*
X192762Y234400D01*
X212209Y234400D01*
X220146Y242337D01*
X220146Y251830D01*
X220635Y252318D01*
G54D17*
X193788Y201290D02*
X193788Y223519D01*
X196731Y226462D01*
X237609Y226462D01*
X245546Y234400D01*
X245546Y247861D01*
X246035Y248350D01*
X236764Y204996D02*
G54D18*
D03*
G54D17*
X236764Y204996D02*
X252706Y204996D01*
X253137Y205427D01*
X258643Y144706D02*
G54D19*
D03*
X258644Y156612D02*
G54D19*
D03*
X259040Y168518D02*
G54D19*
D03*
G54D17*
X216698Y132332D02*
X268320Y132729D01*
X274467Y138876D01*
X274467Y165394D01*
X270550Y169312D01*
X259040Y169312D01*
G54D20*
X252740Y207808D02*
X252740Y191487D01*
X256659Y187569D01*
X287615Y187569D01*
X295553Y195506D01*
X295553Y268531D01*
X285631Y278453D01*
X257825Y278428D01*
G54D15*
X195235Y251128D02*
X195235Y269417D01*
X204271Y278453D01*
X238031Y278428D01*
G54D20*
X289203Y187966D02*
X289203Y172884D01*
X296346Y165741D01*
X295604Y165741D01*
X297933Y141531D02*
G54D21*
D03*
X297562Y163730D02*
G54D21*
D03*
X257825Y278428D02*
G54D22*
D03*
X238825Y278428D02*
G54D22*
D03*
X101429Y162666D02*
G54D23*
D03*
X101430Y184048D02*
G54D23*
D03*
G54D17*
X127274Y157129D02*
X106966Y157129D01*
X101429Y162666D01*
G54D17*
X216698Y140333D02*
X254271Y140333D01*
X258643Y144706D01*
X377928Y153610D02*
G54D24*
D03*
X75998Y132480D02*
G54D25*
D03*
X75997Y107081D02*
G54D25*
D03*
G54D26*
X63616Y14432D02*
X58616Y17099D01*
X63616Y19766D01*
G54D26*
X58616Y28210D02*
X58616Y22876D01*
X59171Y22876D01*
X60282Y23543D01*
X63616Y27543D01*
X64727Y28210D01*
X65838Y28210D01*
X66949Y27543D01*
X67504Y26210D01*
X67504Y24876D01*
X66949Y23543D01*
X65838Y22876D01*
G54D26*
X58616Y31320D02*
X58616Y31320D01*
G54D26*
X65838Y39765D02*
X60282Y39765D01*
X59171Y39098D01*
X58616Y37765D01*
X58616Y36431D01*
X59171Y35098D01*
X60282Y34431D01*
X65838Y34431D01*
X66949Y35098D01*
X67504Y36431D01*
X67504Y37765D01*
X66949Y39098D01*
X65838Y39765D01*
G54D17*
X169862Y202531D02*
X169862Y222772D01*
X161528Y231106D01*
X95250Y231106D01*
X82550Y243806D01*
X69850Y243806D01*
G54D17*
X161924Y204118D02*
X161924Y218406D01*
X157162Y223168D01*
X104774Y223168D01*
X105002Y222458D02*
G54D18*
D03*
G54D17*
X201612Y204118D02*
X219074Y204118D01*
X219302Y203408D02*
G54D18*
D03*
X193902Y189120D02*
G54D18*
D03*
X181202Y180786D02*
G54D18*
D03*
G54D17*
X181371Y181100D02*
X216296Y181100D01*
G54D17*
X193674Y189037D02*
X215106Y189037D01*
X356225Y255796D02*
G54D27*
D03*
X343525Y255796D02*
G54D27*
D03*
X330825Y255796D02*
G54D27*
D03*
G54D17*
X219074Y66006D02*
X185737Y99344D01*
X185737Y118790D01*
G54D17*
X150748Y66006D02*
X150415Y75928D01*
X177800Y99740D01*
X177800Y116806D01*
X178990Y117997D01*
X214936Y117683D02*
G54D18*
D03*
G54D17*
X201215Y117997D02*
X214709Y117997D01*
X369322Y255796D02*
G54D27*
D03*
G54D17*
X344090Y207294D02*
X344090Y220390D01*
X350043Y226344D01*
X423862Y226344D01*
X430609Y219597D01*
X430609Y188640D01*
X403224Y161256D01*
X403224Y155303D01*
G54D17*
X331390Y207294D02*
X331390Y221184D01*
X344487Y234281D01*
X426640Y234281D01*
X438150Y222772D01*
X438150Y180703D01*
X428228Y170781D01*
X428228Y152922D01*
X429021Y152128D01*
G54D17*
X330596Y255712D02*
X330596Y268015D01*
X330993Y268412D01*
G54D17*
X343296Y255712D02*
X343296Y268412D01*
X343693Y268809D01*
G54D17*
X356393Y256109D02*
X356393Y268809D01*
G54D17*
X369490Y255712D02*
X369490Y267222D01*
X369093Y267618D01*
G54D10*
X46831Y162447D02*
X0Y162447D01*
X0Y81881D01*
X47228Y81881D01*
X47228Y16000D01*
X327024Y136650D02*
G54D28*
D03*
X352424Y136650D02*
G54D28*
D03*
X377824Y136650D02*
G54D28*
D03*
X403224Y136650D02*
G54D28*
D03*
X428624Y136650D02*
G54D28*
D03*
G54D17*
X194071Y117997D02*
X194071Y105297D01*
X212328Y87040D01*
X344090Y87040D01*
X352821Y78309D01*
X352821Y67990D01*
G54D29*
X419893Y207294D02*
X419893Y193006D01*
X397271Y170384D01*
X385762Y170384D01*
X379412Y164034D01*
X379412Y154509D01*
X378618Y153715D01*
G54D17*
X351631Y156097D02*
X351631Y180306D01*
X368696Y197372D01*
X368696Y207294D01*
G54D17*
X328612Y157287D02*
X328612Y168003D01*
X354806Y194197D01*
X354806Y207294D01*
X355600Y208087D01*
X119647Y81414D02*
G54D30*
D03*
X119648Y49446D02*
G54D30*
D03*
G54D29*
X116681Y81756D02*
X99218Y81756D01*
X74612Y106362D01*
G54D15*
X77787Y106362D02*
X84137Y106362D01*
X119062Y141287D01*
X131762Y141287D01*
G54D10*
G75*
G01X452041Y287462D02*
G03X436166Y303337I-15875J0D01*
G01*
G54D10*
G75*
G01X62706Y303337D02*
G03X46831Y287462I0J-15875D01*
G01*
X330841Y270818D02*
G54D31*
D03*
X343541Y270818D02*
G54D31*
D03*
X356241Y270818D02*
G54D31*
D03*
X368941Y270818D02*
G54D31*
D03*
X381641Y209350D02*
G54D31*
D03*
X394341Y209350D02*
G54D31*
D03*
X407041Y209350D02*
G54D31*
D03*
X419741Y209350D02*
G54D31*
D03*
X419741Y270818D02*
G54D31*
D03*
X407041Y270818D02*
G54D31*
D03*
X394341Y270818D02*
G54D31*
D03*
X381641Y270818D02*
G54D31*
D03*
X368941Y209350D02*
G54D31*
D03*
X356241Y209350D02*
G54D31*
D03*
X343541Y209350D02*
G54D31*
D03*
X330841Y209350D02*
G54D31*
D03*
%LPD*%
G54D32*
G36*
X69850Y201006D02*
X82350Y201006D01*
X82350Y185006D01*
X69850Y185006D01*
X69850Y201006D01*
G37*
G36*
X77850Y193006D02*
X77850Y180506D01*
X61850Y180506D01*
X61850Y193006D01*
X77850Y193006D01*
G37*
G36*
X69850Y185006D02*
X57350Y185006D01*
X57350Y201006D01*
X69850Y201006D01*
X69850Y185006D01*
G37*
G54D33*
G36*
X155398Y20998D02*
X155398Y7498D01*
X146098Y7498D01*
X146098Y20998D01*
X155398Y20998D01*
G37*
G36*
X150748Y16348D02*
X137248Y16348D01*
X137248Y25648D01*
X150748Y25648D01*
X150748Y16348D01*
G37*
G36*
X146098Y20998D02*
X146098Y34498D01*
X155398Y34498D01*
X155398Y20998D01*
X146098Y20998D01*
G37*
G36*
X150748Y25648D02*
X164248Y25648D01*
X164248Y16348D01*
X150748Y16348D01*
X150748Y25648D01*
G37*
G54D33*
G36*
X214425Y20998D02*
X214425Y34498D01*
X223725Y34498D01*
X223725Y20998D01*
X214425Y20998D01*
G37*
G36*
X219075Y25648D02*
X232575Y25648D01*
X232575Y16348D01*
X219075Y16348D01*
X219075Y25648D01*
G37*
G36*
X223725Y20998D02*
X223725Y7498D01*
X214425Y7498D01*
X214425Y20998D01*
X223725Y20998D01*
G37*
G36*
X219075Y16348D02*
X205575Y16348D01*
X205575Y25648D01*
X219075Y25648D01*
X219075Y16348D01*
G37*
G54D33*
G36*
X347775Y20998D02*
X347775Y34498D01*
X357075Y34498D01*
X357075Y20998D01*
X347775Y20998D01*
G37*
G36*
X352425Y25648D02*
X365925Y25648D01*
X365925Y16348D01*
X352425Y16348D01*
X352425Y25648D01*
G37*
G36*
X357075Y20998D02*
X357075Y7498D01*
X347775Y7498D01*
X347775Y20998D01*
X357075Y20998D01*
G37*
G36*
X352425Y16348D02*
X338925Y16348D01*
X338925Y25648D01*
X352425Y25648D01*
X352425Y16348D01*
G37*
G54D34*
G36*
X216698Y170337D02*
X205848Y170337D01*
X205848Y175925D01*
X216698Y175925D01*
X216698Y170337D01*
G37*
G36*
X216698Y175925D02*
X227548Y175925D01*
X227548Y170337D01*
X216698Y170337D01*
X216698Y175925D01*
G37*
G54D34*
G36*
X216698Y154335D02*
X205848Y154335D01*
X205848Y159923D01*
X216698Y159923D01*
X216698Y154335D01*
G37*
G54D34*
G36*
X130846Y162336D02*
X119996Y162336D01*
X119996Y167924D01*
X130846Y167924D01*
X130846Y162336D01*
G37*
G36*
X130846Y167924D02*
X141696Y167924D01*
X141696Y162336D01*
X130846Y162336D01*
X130846Y167924D01*
G37*
G54D35*
G36*
X144436Y245342D02*
X131936Y245342D01*
X131936Y256916D01*
X144436Y256916D01*
X144436Y245342D01*
G37*
G36*
X138649Y251129D02*
X138649Y263629D01*
X150222Y263629D01*
X150222Y251129D01*
X138649Y251129D01*
G37*
G36*
X144436Y256916D02*
X156936Y256916D01*
X156936Y245342D01*
X144436Y245342D01*
X144436Y256916D01*
G37*
G36*
X150222Y251129D02*
X150222Y238629D01*
X138649Y238629D01*
X138649Y251129D01*
X150222Y251129D01*
G37*
G54D36*
G36*
X169835Y245422D02*
X157335Y245422D01*
X157335Y256836D01*
X169835Y256836D01*
X169835Y245422D01*
G37*
G36*
X164128Y251129D02*
X164128Y263629D01*
X175541Y263629D01*
X175541Y251129D01*
X164128Y251129D01*
G37*
G36*
X175541Y251129D02*
X175541Y238629D01*
X164128Y238629D01*
X164128Y251129D01*
X175541Y251129D01*
G37*
G54D37*
G36*
X258644Y153612D02*
X244644Y153612D01*
X244644Y159612D01*
X258644Y159612D01*
X258644Y153612D01*
G37*
G54D38*
G36*
X297933Y137306D02*
X286933Y137306D01*
X286933Y145756D01*
X297933Y145756D01*
X297933Y137306D01*
G37*
G36*
X293708Y141531D02*
X293708Y152531D01*
X302158Y152531D01*
X302158Y141531D01*
X293708Y141531D01*
G37*
G36*
X297933Y145756D02*
X308933Y145756D01*
X308933Y137306D01*
X297933Y137306D01*
X297933Y145756D01*
G37*
G36*
X302158Y141531D02*
X302158Y130531D01*
X293708Y130531D01*
X293708Y141531D01*
X302158Y141531D01*
G37*
G54D15*
G36*
X101430Y177548D02*
X88930Y177548D01*
X88930Y190548D01*
X101430Y190548D01*
X101430Y177548D01*
G37*
G36*
X94930Y184048D02*
X94930Y195048D01*
X107930Y195048D01*
X107930Y184048D01*
X94930Y184048D01*
G37*
G36*
X101430Y190548D02*
X113930Y190548D01*
X113930Y177548D01*
X101430Y177548D01*
X101430Y190548D01*
G37*
G54D39*
G36*
X75998Y139180D02*
X90498Y139180D01*
X90498Y125780D01*
X75998Y125780D01*
X75998Y139180D01*
G37*
G36*
X75998Y125780D02*
X61498Y125780D01*
X61498Y139180D01*
X75998Y139180D01*
X75998Y125780D01*
G37*
G36*
X69298Y132480D02*
X69298Y146980D01*
X82698Y146980D01*
X82698Y132480D01*
X69298Y132480D01*
G37*
G54D32*
G36*
X119648Y57446D02*
X134148Y57446D01*
X134148Y41446D01*
X119648Y41446D01*
X119648Y57446D01*
G37*
G36*
X127648Y49446D02*
X127648Y36946D01*
X111648Y36946D01*
X111648Y49446D01*
X127648Y49446D01*
G37*
G36*
X119648Y41446D02*
X105148Y41446D01*
X105148Y57446D01*
X119648Y57446D01*
X119648Y41446D01*
G37*
G54D40*
G36*
X416439Y270818D02*
X416439Y285478D01*
X423043Y285478D01*
X423043Y270818D01*
X416439Y270818D01*
G37*
G36*
X419741Y274120D02*
X427543Y274120D01*
X427543Y267516D01*
X419741Y267516D01*
X419741Y274120D01*
G37*
G36*
X423043Y270818D02*
X423043Y256158D01*
X416439Y256158D01*
X416439Y270818D01*
X423043Y270818D01*
G37*
G36*
X419741Y267516D02*
X411939Y267516D01*
X411939Y274120D01*
X419741Y274120D01*
X419741Y267516D01*
G37*
G54D40*
G36*
X403739Y270818D02*
X403739Y285478D01*
X410343Y285478D01*
X410343Y270818D01*
X403739Y270818D01*
G37*
G36*
X407041Y274120D02*
X414843Y274120D01*
X414843Y267516D01*
X407041Y267516D01*
X407041Y274120D01*
G37*
G36*
X410343Y270818D02*
X410343Y256158D01*
X403739Y256158D01*
X403739Y270818D01*
X410343Y270818D01*
G37*
G36*
X407041Y267516D02*
X399239Y267516D01*
X399239Y274120D01*
X407041Y274120D01*
X407041Y267516D01*
G37*
G54D40*
G36*
X391039Y270818D02*
X391039Y285478D01*
X397643Y285478D01*
X397643Y270818D01*
X391039Y270818D01*
G37*
G36*
X394341Y274120D02*
X402143Y274120D01*
X402143Y267516D01*
X394341Y267516D01*
X394341Y274120D01*
G37*
G36*
X397643Y270818D02*
X397643Y256158D01*
X391039Y256158D01*
X391039Y270818D01*
X397643Y270818D01*
G37*
G36*
X394341Y267516D02*
X386539Y267516D01*
X386539Y274120D01*
X394341Y274120D01*
X394341Y267516D01*
G37*
G54D40*
G36*
X378339Y270818D02*
X378339Y285478D01*
X384943Y285478D01*
X384943Y270818D01*
X378339Y270818D01*
G37*
G36*
X381641Y274120D02*
X389443Y274120D01*
X389443Y267516D01*
X381641Y267516D01*
X381641Y274120D01*
G37*
G36*
X384943Y270818D02*
X384943Y256158D01*
X378339Y256158D01*
X378339Y270818D01*
X384943Y270818D01*
G37*
G54D41*
X63103Y303337D02*
X436166Y303337D01*
G54D41*
G75*
G01X436166Y125D02*
G03X452041Y16000I0J15875D01*
G01*
G54D41*
G75*
G01X47228Y16000D02*
G03X63103Y125I15875J0D01*
G01*
G54D41*
X46831Y287462D02*
X46831Y162844D01*
G54D41*
X452041Y287462D02*
X452041Y16000D01*
G54D41*
X436166Y125D02*
X63103Y125D01*
G36*
X61850Y201006D02*
X77850Y201006D01*
X77850Y185006D01*
X61850Y185006D01*
X61850Y201006D01*
G37*
X69849Y218406D02*
G54D42*
D03*
X69850Y243806D02*
G54D42*
D03*
X69850Y269206D02*
G54D42*
D03*
X150748Y66006D02*
G54D43*
D03*
X85724Y66006D02*
G54D43*
D03*
X85724Y20998D02*
G54D43*
D03*
X150748Y20998D02*
G54D43*
D03*
X219074Y66006D02*
G54D43*
D03*
X284098Y66006D02*
G54D43*
D03*
X284098Y20997D02*
G54D43*
D03*
X219075Y20998D02*
G54D43*
D03*
X352424Y66006D02*
G54D43*
D03*
X417448Y66006D02*
G54D43*
D03*
X417448Y20997D02*
G54D43*
D03*
X352425Y20998D02*
G54D43*
D03*
X216698Y189133D02*
G54D44*
D03*
X216698Y181132D02*
G54D44*
D03*
X216698Y173131D02*
G54D44*
D03*
X216698Y165130D02*
G54D44*
D03*
X216698Y157129D02*
G54D44*
D03*
X216698Y149128D02*
G54D44*
D03*
X216698Y141127D02*
G54D44*
D03*
X216698Y133126D02*
G54D44*
D03*
X130846Y133126D02*
G54D44*
D03*
X130846Y141127D02*
G54D44*
D03*
X130846Y149128D02*
G54D44*
D03*
X130846Y157129D02*
G54D44*
D03*
X130846Y165130D02*
G54D44*
D03*
X130846Y173131D02*
G54D44*
D03*
X130846Y181132D02*
G54D44*
D03*
X130846Y189133D02*
G54D44*
D03*
X145782Y204068D02*
G54D45*
D03*
X153782Y204068D02*
G54D45*
D03*
X161784Y204068D02*
G54D45*
D03*
X169784Y204068D02*
G54D45*
D03*
X177786Y204068D02*
G54D45*
D03*
X185786Y204068D02*
G54D45*
D03*
X193788Y204068D02*
G54D45*
D03*
X201788Y204068D02*
G54D45*
D03*
X201788Y118216D02*
G54D45*
D03*
X193788Y118216D02*
G54D45*
D03*
X185786Y118216D02*
G54D45*
D03*
X177786Y118216D02*
G54D45*
D03*
X169784Y118216D02*
G54D45*
D03*
X161784Y118216D02*
G54D45*
D03*
X153782Y118216D02*
G54D45*
D03*
X145782Y118216D02*
G54D45*
D03*
G36*
X136436Y243129D02*
X136436Y259129D01*
X152436Y259129D01*
X152436Y243129D01*
X136436Y243129D01*
G37*
X169835Y251129D02*
G54D42*
D03*
X195235Y251128D02*
G54D42*
D03*
X220635Y251128D02*
G54D42*
D03*
X246035Y251128D02*
G54D42*
D03*
X271435Y251128D02*
G54D42*
D03*
G54D46*
X220667Y165130D02*
X226941Y165130D01*
X232002Y160069D01*
X232002Y154974D01*
X226100Y149072D01*
X209828Y149072D01*
X201890Y141134D01*
X134815Y141127D01*
X253137Y205427D02*
G54D47*
D03*
X274518Y205427D02*
G54D47*
D03*
G54D48*
X274518Y205427D02*
X274518Y248045D01*
X271435Y251128D01*
X178027Y218092D02*
G54D49*
D03*
G54D48*
X177786Y204068D02*
X177786Y217851D01*
X178027Y218092D01*
G54D48*
X185786Y206052D02*
X185786Y227424D01*
X192762Y234400D01*
X212209Y234400D01*
X220146Y242337D01*
X220146Y251830D01*
X220635Y252318D01*
G54D48*
X193788Y201290D02*
X193788Y223519D01*
X196731Y226462D01*
X237609Y226462D01*
X245546Y234400D01*
X245546Y247861D01*
X246035Y248350D01*
X236764Y204996D02*
G54D49*
D03*
G54D48*
X236764Y204996D02*
X252706Y204996D01*
X253137Y205427D01*
X258643Y144706D02*
G54D50*
D03*
X258644Y156612D02*
G54D50*
D03*
X259040Y168518D02*
G54D50*
D03*
G54D48*
X216698Y132332D02*
X268320Y132729D01*
X274467Y138876D01*
X274467Y165394D01*
X270550Y169312D01*
X259040Y169312D01*
G54D51*
X252740Y207808D02*
X252740Y191487D01*
X256659Y187569D01*
X287615Y187569D01*
X295553Y195506D01*
X295553Y268531D01*
X285631Y278453D01*
X257825Y278428D01*
G54D46*
X195235Y251128D02*
X195235Y269417D01*
X204271Y278453D01*
X238031Y278428D01*
G54D51*
X289203Y187966D02*
X289203Y172884D01*
X296346Y165741D01*
X295604Y165741D01*
X297933Y141531D02*
G54D52*
D03*
X297562Y163730D02*
G54D52*
D03*
X257825Y278428D02*
G54D53*
D03*
X238825Y278428D02*
G54D53*
D03*
X101429Y162666D02*
G54D54*
D03*
X101430Y184048D02*
G54D54*
D03*
G54D48*
X127274Y157129D02*
X106966Y157129D01*
X101429Y162666D01*
G54D48*
X216698Y140333D02*
X254271Y140333D01*
X258643Y144706D01*
X377928Y153610D02*
G54D55*
D03*
X75998Y132480D02*
G54D56*
D03*
X75997Y107081D02*
G54D56*
D03*
G54D57*
X63616Y14432D02*
X58616Y17099D01*
X63616Y19766D01*
G54D57*
X58616Y28210D02*
X58616Y22876D01*
X59171Y22876D01*
X60282Y23543D01*
X63616Y27543D01*
X64727Y28210D01*
X65838Y28210D01*
X66949Y27543D01*
X67504Y26210D01*
X67504Y24876D01*
X66949Y23543D01*
X65838Y22876D01*
G54D57*
X58616Y31320D02*
X58616Y31320D01*
G54D57*
X65838Y39765D02*
X60282Y39765D01*
X59171Y39098D01*
X58616Y37765D01*
X58616Y36431D01*
X59171Y35098D01*
X60282Y34431D01*
X65838Y34431D01*
X66949Y35098D01*
X67504Y36431D01*
X67504Y37765D01*
X66949Y39098D01*
X65838Y39765D01*
G54D48*
X169862Y202531D02*
X169862Y222772D01*
X161528Y231106D01*
X95250Y231106D01*
X82550Y243806D01*
X69850Y243806D01*
G54D48*
X161924Y204118D02*
X161924Y218406D01*
X157162Y223168D01*
X104774Y223168D01*
X105002Y222458D02*
G54D49*
D03*
G54D48*
X201612Y204118D02*
X219074Y204118D01*
X219302Y203408D02*
G54D49*
D03*
X193902Y189120D02*
G54D49*
D03*
X181202Y180786D02*
G54D49*
D03*
G54D48*
X181371Y181100D02*
X216296Y181100D01*
G54D48*
X193674Y189037D02*
X215106Y189037D01*
X356225Y255796D02*
G54D58*
D03*
X343525Y255796D02*
G54D58*
D03*
X330825Y255796D02*
G54D58*
D03*
G54D48*
X219074Y66006D02*
X185737Y99344D01*
X185737Y118790D01*
G54D48*
X150748Y66006D02*
X150415Y75928D01*
X177800Y99740D01*
X177800Y116806D01*
X178990Y117997D01*
X214936Y117683D02*
G54D49*
D03*
G54D48*
X201215Y117997D02*
X214709Y117997D01*
X369322Y255796D02*
G54D58*
D03*
G54D48*
X344090Y207294D02*
X344090Y220390D01*
X350043Y226344D01*
X423862Y226344D01*
X430609Y219597D01*
X430609Y188640D01*
X403224Y161256D01*
X403224Y155303D01*
G54D48*
X331390Y207294D02*
X331390Y221184D01*
X344487Y234281D01*
X426640Y234281D01*
X438150Y222772D01*
X438150Y180703D01*
X428228Y170781D01*
X428228Y152922D01*
X429021Y152128D01*
G54D48*
X330596Y255712D02*
X330596Y268015D01*
X330993Y268412D01*
G54D48*
X343296Y255712D02*
X343296Y268412D01*
X343693Y268809D01*
G54D48*
X356393Y256109D02*
X356393Y268809D01*
G54D48*
X369490Y255712D02*
X369490Y267222D01*
X369093Y267618D01*
G54D41*
X46831Y162447D02*
X0Y162447D01*
X0Y81881D01*
X47228Y81881D01*
X47228Y16000D01*
X327024Y136650D02*
G54D59*
D03*
X352424Y136650D02*
G54D59*
D03*
X377824Y136650D02*
G54D59*
D03*
X403224Y136650D02*
G54D59*
D03*
X428624Y136650D02*
G54D59*
D03*
G54D48*
X194071Y117997D02*
X194071Y105297D01*
X212328Y87040D01*
X344090Y87040D01*
X352821Y78309D01*
X352821Y67990D01*
G54D37*
X419893Y207294D02*
X419893Y193006D01*
X397271Y170384D01*
X385762Y170384D01*
X379412Y164034D01*
X379412Y154509D01*
X378618Y153715D01*
G54D48*
X351631Y156097D02*
X351631Y180306D01*
X368696Y197372D01*
X368696Y207294D01*
G54D48*
X328612Y157287D02*
X328612Y168003D01*
X354806Y194197D01*
X354806Y207294D01*
X355600Y208087D01*
X119647Y81414D02*
G54D60*
D03*
X119648Y49446D02*
G54D60*
D03*
G54D37*
X116681Y81756D02*
X99218Y81756D01*
X74612Y106362D01*
G54D46*
X77787Y106362D02*
X84137Y106362D01*
X119062Y141287D01*
X131762Y141287D01*
G54D41*
G75*
G01X452041Y287462D02*
G03X436166Y303337I-15875J0D01*
G01*
G54D41*
G75*
G01X62706Y303337D02*
G03X46831Y287462I0J-15875D01*
G01*
X330841Y270818D02*
G54D61*
D03*
X343541Y270818D02*
G54D61*
D03*
X356241Y270818D02*
G54D61*
D03*
X368941Y270818D02*
G54D61*
D03*
X381641Y209350D02*
G54D61*
D03*
X394341Y209350D02*
G54D61*
D03*
X407041Y209350D02*
G54D61*
D03*
X419741Y209350D02*
G54D61*
D03*
X419741Y270818D02*
G54D61*
D03*
X407041Y270818D02*
G54D61*
D03*
X394341Y270818D02*
G54D61*
D03*
X381641Y270818D02*
G54D61*
D03*
X368941Y209350D02*
G54D61*
D03*
X356241Y209350D02*
G54D61*
D03*
X343541Y209350D02*
G54D61*
D03*
X330841Y209350D02*
G54D61*
D03*
M02*
