%FSLAX34Y34*%
%MOMM*%
%LNCOPPER_TOP*%
G71*
G01*
%ADD10C,1.600*%
%ADD11C,1.800*%
%ADD12C,0.810*%
%ADD13C,0.300*%
%ADD14C,1.400*%
%ADD15C,2.000*%
%ADD16C,0.700*%
%ADD17C,1.000*%
%ADD18C,0.600*%
%LPD*%
G36*
X61850Y201006D02*
X77850Y201006D01*
X77850Y185006D01*
X61850Y185006D01*
X61850Y201006D01*
G37*
X69849Y218406D02*
G54D10*
D03*
X69850Y243806D02*
G54D10*
D03*
X69850Y269206D02*
G54D10*
D03*
X150748Y66006D02*
G54D11*
D03*
X85724Y66006D02*
G54D11*
D03*
X85724Y20998D02*
G54D11*
D03*
X150748Y20998D02*
G54D11*
D03*
X219074Y66006D02*
G54D11*
D03*
X284098Y66006D02*
G54D11*
D03*
X284098Y20997D02*
G54D11*
D03*
X219075Y20998D02*
G54D11*
D03*
X352424Y66006D02*
G54D11*
D03*
X417448Y66006D02*
G54D11*
D03*
X417448Y20997D02*
G54D11*
D03*
X352425Y20998D02*
G54D11*
D03*
G36*
X136436Y243129D02*
X136436Y259129D01*
X152436Y259129D01*
X152436Y243129D01*
X136436Y243129D01*
G37*
X169835Y251129D02*
G54D10*
D03*
X195235Y251128D02*
G54D10*
D03*
X220635Y251128D02*
G54D10*
D03*
X246035Y251128D02*
G54D10*
D03*
X271435Y251128D02*
G54D10*
D03*
X178027Y218092D02*
G54D12*
D03*
X236764Y204996D02*
G54D12*
D03*
G54D13*
X178027Y218092D02*
X223667Y218092D01*
X236764Y204996D01*
X377928Y153610D02*
G54D14*
D03*
X75998Y132480D02*
G54D15*
D03*
X75997Y107081D02*
G54D15*
D03*
X105002Y222458D02*
G54D12*
D03*
G54D13*
X73024Y271190D02*
X73024Y264840D01*
X104774Y233090D01*
X104774Y223565D01*
X219302Y203408D02*
G54D12*
D03*
X193902Y189120D02*
G54D12*
D03*
X181202Y180786D02*
G54D12*
D03*
X356225Y255796D02*
G54D16*
D03*
X343525Y255796D02*
G54D16*
D03*
X330825Y255796D02*
G54D16*
D03*
G54D13*
X219868Y202531D02*
X223043Y202531D01*
X230187Y195387D01*
X271065Y195387D01*
X330200Y254522D01*
X330596Y256109D01*
G54D13*
X193674Y187847D02*
X275431Y187847D01*
X343296Y255712D01*
X343296Y256109D01*
G54D13*
X181371Y180703D02*
X280590Y180703D01*
X355996Y256109D01*
X355996Y256506D01*
X214936Y117683D02*
G54D12*
D03*
G54D13*
X214312Y117203D02*
X229393Y117203D01*
X368696Y256506D01*
X368696Y256903D01*
X369322Y255796D02*
G54D16*
D03*
G54D17*
X73024Y103981D02*
X244474Y103981D01*
X288924Y148431D01*
X374650Y148431D01*
X377824Y152400D01*
G54D18*
X194468Y249237D02*
X191293Y249237D01*
X147637Y205581D01*
X96043Y205581D01*
X83343Y218281D01*
X72231Y218281D01*
G54D18*
X147637Y206375D02*
X147637Y105568D01*
X146843Y104775D01*
M02*
