%FSLAX34Y34*%
%MOMM*%
%LNSILK_TOP*%
G71*
G01*
%ADD10C,0.095*%
%ADD11C,0.050*%
%ADD12C,0.200*%
%ADD13C,0.152*%
%ADD14C,0.078*%
%ADD15C,0.203*%
%ADD16C,0.349*%
%ADD17C,0.159*%
%ADD18C,0.500*%
%LPD*%
G54D10*
X403160Y120672D02*
X397826Y120672D01*
X397826Y122672D01*
X398160Y123472D01*
X398826Y123872D01*
X402160Y123872D01*
X402826Y123472D01*
X403160Y122672D01*
X403160Y120672D01*
G54D10*
X402826Y128139D02*
X403160Y127499D01*
X403160Y126699D01*
X402826Y125899D01*
X402160Y125739D01*
X401026Y125739D01*
X400360Y126139D01*
X400160Y126939D01*
X400360Y127739D01*
X400826Y128139D01*
X401493Y128139D01*
X401493Y125739D01*
G54D10*
X403160Y130006D02*
X400160Y130006D01*
G54D10*
X400693Y130006D02*
X400160Y130806D01*
X400360Y131606D01*
X400826Y132006D01*
X403160Y132006D01*
G54D10*
X400693Y132006D02*
X400160Y132806D01*
X400360Y133606D01*
X400826Y134006D01*
X403160Y134006D01*
G54D10*
X402826Y138273D02*
X403160Y137633D01*
X403160Y136833D01*
X402826Y136033D01*
X402160Y135873D01*
X401026Y135873D01*
X400360Y136273D01*
X400160Y137073D01*
X400360Y137873D01*
X400826Y138273D01*
X401493Y138273D01*
X401493Y135873D01*
G54D10*
X403160Y140140D02*
X400160Y140140D01*
G54D10*
X400826Y140140D02*
X400360Y140540D01*
X400160Y141340D01*
X400360Y142140D01*
X400826Y142540D01*
X403160Y142540D01*
G54D10*
X397826Y145207D02*
X402826Y145207D01*
X403160Y145607D01*
X403026Y146007D01*
G54D10*
X400160Y144407D02*
X400160Y146007D01*
G54D10*
X403160Y147874D02*
X400160Y147874D01*
G54D10*
X399160Y147874D02*
X399160Y147874D01*
G54D10*
X402826Y152141D02*
X403160Y151501D01*
X403160Y150701D01*
X402826Y149901D01*
X402160Y149741D01*
X401026Y149741D01*
X400360Y150141D01*
X400160Y150941D01*
X400360Y151741D01*
X400826Y152141D01*
X401493Y152141D01*
X401493Y149741D01*
G54D10*
X400160Y154008D02*
X403160Y155608D01*
X400160Y157208D01*
G54D11*
G75*
G01X425443Y129412D02*
G03X425443Y145910I-4762J8249D01*
G01*
G54D11*
G75*
G01X432769Y121229D02*
G03X420337Y157334I-9725J16844D01*
G01*
G36*
X420284Y157108D02*
X426238Y159489D01*
X427428Y157108D01*
X423856Y157504D01*
X420284Y157108D01*
G37*
G54D11*
X420284Y157108D02*
X426238Y159489D01*
X427428Y157108D01*
X423856Y157504D01*
X420284Y157108D01*
G36*
X427825Y157108D02*
X430603Y159092D01*
X432191Y157108D01*
X431000Y155917D01*
X427825Y157108D01*
G37*
G54D11*
X427825Y157108D02*
X430603Y159092D01*
X432191Y157108D01*
X431000Y155917D01*
X427825Y157108D01*
G36*
X432191Y155520D02*
X436159Y158298D01*
X437747Y155917D01*
X435366Y153139D01*
X432191Y155520D01*
G37*
G54D11*
X432191Y155520D02*
X436159Y158298D01*
X437747Y155917D01*
X435366Y153139D01*
X432191Y155520D01*
G36*
X435762Y153139D02*
X442906Y157504D01*
X444097Y154726D01*
X438144Y150758D01*
X435762Y153139D01*
G37*
G54D11*
X435762Y153139D02*
X442906Y157504D01*
X444097Y154726D01*
X438144Y150758D01*
X435762Y153139D01*
G36*
X438938Y149567D02*
X442906Y151948D01*
X444097Y149170D01*
X440922Y146392D01*
X438938Y149567D01*
G37*
G54D11*
X438938Y149567D02*
X442906Y151948D01*
X444097Y149170D01*
X440922Y146392D01*
X438938Y149567D01*
G36*
X440922Y145995D02*
X442112Y146392D01*
X443303Y143614D01*
X442509Y142026D01*
X440922Y145995D01*
G37*
G54D11*
X440922Y145995D02*
X442112Y146392D01*
X443303Y143614D01*
X442509Y142026D01*
X440922Y145995D01*
G36*
X442906Y138454D02*
X444494Y139645D01*
X445684Y136470D01*
X442509Y134882D01*
X442906Y138454D01*
G37*
G54D11*
X442906Y138454D02*
X444494Y139645D01*
X445684Y136470D01*
X442509Y134882D01*
X442906Y138454D01*
G36*
X441319Y130517D02*
X442112Y131708D01*
X442906Y129723D01*
X440128Y128136D01*
X441319Y130517D01*
G37*
G54D11*
X441319Y130517D02*
X442112Y131708D01*
X442906Y129723D01*
X440128Y128136D01*
X441319Y130517D01*
G36*
X439731Y127739D02*
X441716Y128532D01*
X442906Y126151D01*
X436953Y124167D01*
X439731Y127739D01*
G37*
G54D11*
X439731Y127739D02*
X441716Y128532D01*
X442906Y126151D01*
X436953Y124167D01*
X439731Y127739D01*
G36*
X436556Y123770D02*
X442112Y125358D01*
X442112Y121389D01*
X432984Y120992D01*
X436556Y123770D01*
G37*
G54D11*
X436556Y123770D02*
X442112Y125358D01*
X442112Y121389D01*
X432984Y120992D01*
X436556Y123770D01*
G36*
X415522Y145995D02*
X425444Y145995D01*
X428222Y143217D01*
X429016Y141629D01*
X429809Y139645D01*
X429809Y136073D01*
X429412Y134486D01*
X428222Y132104D01*
X425444Y129326D01*
X415919Y129326D01*
X415919Y130517D01*
X419094Y132898D01*
X419094Y134089D01*
X415522Y132898D01*
X415522Y135279D01*
X418697Y138851D01*
X415522Y137264D01*
X415522Y141232D01*
X417109Y143217D01*
X415522Y142820D01*
X415522Y145995D01*
G37*
G54D11*
X415522Y145995D02*
X425444Y145995D01*
X428222Y143217D01*
X429016Y141629D01*
X429809Y139645D01*
X429809Y136073D01*
X429412Y134486D01*
X428222Y132104D01*
X425444Y129326D01*
X415919Y129326D01*
X415919Y130517D01*
X419094Y132898D01*
X419094Y134089D01*
X415522Y132898D01*
X415522Y135279D01*
X418697Y138851D01*
X415522Y137264D01*
X415522Y141232D01*
X417109Y143217D01*
X415522Y142820D01*
X415522Y145995D01*
G54D12*
X54709Y169498D02*
X445234Y169498D01*
X445234Y293323D01*
X54709Y293323D01*
X54709Y169498D01*
G54D12*
X109477Y175848D02*
X370621Y175848D01*
X370621Y286973D01*
X109477Y286973D01*
X109477Y175848D01*
G54D13*
X76200Y180306D02*
X63500Y180306D01*
X57150Y186656D01*
X57150Y199356D01*
X63500Y205706D01*
X57150Y212056D01*
X57150Y224756D01*
X63500Y231106D01*
X76200Y231106D01*
X82550Y224756D01*
X82550Y212056D01*
X76200Y205706D01*
X82550Y199356D01*
X82550Y186656D01*
X76200Y180306D01*
G54D13*
X63500Y205706D02*
X76200Y205706D01*
G54D13*
X76200Y231106D02*
X82550Y237456D01*
X82550Y250156D01*
X76200Y256506D01*
X82550Y262856D01*
X82550Y275556D01*
X76200Y281906D01*
G54D13*
X63500Y281906D02*
X76200Y281906D01*
G54D13*
X63500Y281906D02*
X57150Y275556D01*
X57150Y262856D01*
X63500Y256506D01*
X76200Y256506D01*
G54D13*
X63500Y256506D02*
X57150Y250156D01*
X57150Y237456D01*
X63500Y231106D01*
G54D14*
X89112Y193464D02*
X90979Y193464D01*
X90979Y191520D01*
X90512Y190742D01*
X89579Y190353D01*
X88646Y190353D01*
X87712Y190742D01*
X87246Y191520D01*
X87246Y195409D01*
X87712Y196187D01*
X88646Y196575D01*
X89579Y196575D01*
X90512Y196187D01*
X90979Y195409D01*
G54D14*
X92690Y190353D02*
X92690Y196575D01*
X96423Y190353D01*
X96423Y196575D01*
G54D14*
X98134Y190353D02*
X98134Y196575D01*
X100467Y196575D01*
X101400Y196187D01*
X101867Y195409D01*
X101867Y191520D01*
X101400Y190742D01*
X100467Y190353D01*
X98134Y190353D01*
G54D14*
X86849Y221579D02*
X89182Y215356D01*
X91516Y221579D01*
G54D14*
X96960Y216523D02*
X96494Y215745D01*
X95560Y215356D01*
X94627Y215356D01*
X93694Y215745D01*
X93227Y216523D01*
X93227Y220412D01*
X93694Y221190D01*
X94627Y221579D01*
X95560Y221579D01*
X96494Y221190D01*
X96960Y220412D01*
G54D14*
X102404Y216523D02*
X101938Y215745D01*
X101004Y215356D01*
X100071Y215356D01*
X99138Y215745D01*
X98671Y216523D01*
X98671Y220412D01*
X99138Y221190D01*
X100071Y221579D01*
X101004Y221579D01*
X101938Y221190D01*
X102404Y220412D01*
G54D14*
X86849Y241923D02*
X87316Y241145D01*
X88249Y240756D01*
X89182Y240756D01*
X90116Y241145D01*
X90582Y241923D01*
X90582Y242701D01*
X90116Y243479D01*
X89182Y243867D01*
X88249Y243867D01*
X87316Y244256D01*
X86849Y245034D01*
X86849Y245812D01*
X87316Y246590D01*
X88249Y246979D01*
X89182Y246979D01*
X90116Y246590D01*
X90582Y245812D01*
G54D14*
X96026Y241923D02*
X95560Y241145D01*
X94626Y240756D01*
X93693Y240756D01*
X92760Y241145D01*
X92293Y241923D01*
X92293Y245812D01*
X92760Y246590D01*
X93693Y246979D01*
X94626Y246979D01*
X95560Y246590D01*
X96026Y245812D01*
G54D14*
X97737Y246979D02*
X97737Y240756D01*
X101004Y240756D01*
G54D14*
X86452Y266529D02*
X86919Y265752D01*
X87852Y265363D01*
X88786Y265363D01*
X89719Y265752D01*
X90186Y266529D01*
X90186Y267307D01*
X89719Y268085D01*
X88786Y268474D01*
X87852Y268474D01*
X86919Y268863D01*
X86452Y269640D01*
X86452Y270418D01*
X86919Y271196D01*
X87852Y271585D01*
X88786Y271585D01*
X89719Y271196D01*
X90186Y270418D01*
G54D14*
X91896Y265363D02*
X91896Y271585D01*
X94230Y271585D01*
X95163Y271196D01*
X95630Y270418D01*
X95630Y266529D01*
X95163Y265752D01*
X94230Y265363D01*
X91896Y265363D01*
G54D14*
X97340Y265363D02*
X99674Y271585D01*
X102007Y265363D01*
G54D14*
X98274Y267696D02*
X101074Y267696D01*
G54D15*
X140893Y72509D02*
X95579Y72509D01*
G54D15*
X89229Y53459D02*
X89229Y33545D01*
G54D15*
X95579Y14495D02*
X140893Y14495D01*
G54D15*
X147243Y33545D02*
X147243Y53459D01*
G54D15*
X134695Y42232D02*
X134746Y43502D01*
X134695Y44772D01*
X134543Y46042D01*
X134289Y47312D01*
X133959Y48531D01*
X133527Y49751D01*
X132994Y50919D01*
X132384Y52037D01*
X131673Y53103D01*
X130885Y54119D01*
X130022Y55059D01*
X129082Y55948D01*
X128091Y56736D01*
X127050Y57472D01*
X125932Y58107D01*
X124764Y58666D01*
X123570Y59123D01*
X122351Y59479D01*
X121106Y59758D01*
X119836Y59936D01*
X118566Y60012D01*
X117271Y59987D01*
X116001Y59860D01*
X114731Y59631D01*
X113512Y59326D01*
X112292Y58895D01*
X111124Y58387D01*
X109981Y57802D01*
X108889Y57117D01*
X107873Y56355D01*
X106908Y55516D01*
X106019Y54602D01*
X105180Y53611D01*
X104444Y52570D01*
X103784Y51478D01*
X103199Y50335D01*
X102717Y49141D01*
X102336Y47922D01*
X102031Y46677D01*
X101828Y45407D01*
X101726Y44137D01*
X101726Y42867D01*
X101828Y41597D01*
X102031Y40327D01*
X102336Y39083D01*
X102717Y37863D01*
X103199Y36670D01*
X103784Y35527D01*
X104444Y34434D01*
X105180Y33393D01*
X106019Y32402D01*
X106908Y31488D01*
X107873Y30650D01*
X108889Y29888D01*
X109981Y29202D01*
X111124Y28618D01*
X112292Y28110D01*
X113512Y27678D01*
X114731Y27373D01*
X116001Y27145D01*
X117271Y27018D01*
X118566Y26992D01*
X119836Y27068D01*
X121106Y27246D01*
X122351Y27526D01*
X123570Y27881D01*
X124764Y28338D01*
X125932Y28897D01*
X127050Y29532D01*
X128091Y30269D01*
X129082Y31056D01*
X130022Y31945D01*
X130885Y32885D01*
X131673Y33901D01*
X132384Y34968D01*
X132994Y36085D01*
X133527Y37254D01*
X133959Y38473D01*
X134289Y39692D01*
X134543Y40962D01*
X134695Y42232D01*
G54D15*
X228930Y72508D02*
X274243Y72508D01*
G54D15*
X280593Y53458D02*
X280593Y33545D01*
G54D15*
X274243Y14495D02*
X228930Y14495D01*
G54D15*
X222580Y33545D02*
X222580Y53458D01*
G54D15*
X235127Y42232D02*
X235076Y43502D01*
X235127Y44772D01*
X235280Y46042D01*
X235534Y47312D01*
X235864Y48531D01*
X236296Y49750D01*
X236829Y50918D01*
X237439Y52036D01*
X238150Y53103D01*
X238937Y54119D01*
X239801Y55059D01*
X240741Y55948D01*
X241731Y56735D01*
X242773Y57472D01*
X243890Y58107D01*
X245059Y58665D01*
X246252Y59123D01*
X247472Y59478D01*
X248716Y59758D01*
X249986Y59935D01*
X251256Y60012D01*
X252552Y59986D01*
X253822Y59859D01*
X255092Y59631D01*
X256311Y59326D01*
X257530Y58894D01*
X258698Y58386D01*
X259842Y57802D01*
X260934Y57116D01*
X261950Y56354D01*
X262915Y55516D01*
X263804Y54601D01*
X264642Y53611D01*
X265379Y52569D01*
X266039Y51477D01*
X266623Y50334D01*
X267106Y49140D01*
X267487Y47921D01*
X267792Y46677D01*
X267995Y45407D01*
X268096Y44137D01*
X268096Y42867D01*
X267995Y41597D01*
X267792Y40327D01*
X267487Y39082D01*
X267106Y37863D01*
X266623Y36669D01*
X266039Y35526D01*
X265379Y34434D01*
X264642Y33392D01*
X263804Y32402D01*
X262915Y31487D01*
X261950Y30649D01*
X260934Y29887D01*
X259842Y29201D01*
X258698Y28617D01*
X257530Y28109D01*
X256311Y27677D01*
X255092Y27373D01*
X253822Y27144D01*
X252552Y27017D01*
X251256Y26992D01*
X249986Y27068D01*
X248716Y27246D01*
X247472Y27525D01*
X246252Y27881D01*
X245059Y28338D01*
X243890Y28897D01*
X242773Y29532D01*
X241731Y30268D01*
X240741Y31056D01*
X239801Y31945D01*
X238937Y32884D01*
X238150Y33900D01*
X237439Y34967D01*
X236829Y36085D01*
X236296Y37253D01*
X235864Y38472D01*
X235534Y39692D01*
X235280Y40962D01*
X235127Y42232D01*
G54D15*
X362280Y72508D02*
X407593Y72508D01*
G54D15*
X413943Y53458D02*
X413943Y33545D01*
G54D15*
X407593Y14495D02*
X362280Y14495D01*
G54D15*
X355930Y33545D02*
X355930Y53458D01*
G54D15*
X368477Y42232D02*
X368426Y43502D01*
X368477Y44772D01*
X368630Y46042D01*
X368884Y47312D01*
X369214Y48531D01*
X369646Y49750D01*
X370179Y50918D01*
X370789Y52036D01*
X371500Y53103D01*
X372287Y54119D01*
X373151Y55059D01*
X374091Y55948D01*
X375081Y56735D01*
X376123Y57472D01*
X377240Y58107D01*
X378409Y58665D01*
X379602Y59123D01*
X380822Y59478D01*
X382066Y59758D01*
X383336Y59935D01*
X384606Y60012D01*
X385902Y59986D01*
X387172Y59859D01*
X388442Y59631D01*
X389661Y59326D01*
X390880Y58894D01*
X392048Y58386D01*
X393192Y57802D01*
X394284Y57116D01*
X395300Y56354D01*
X396265Y55516D01*
X397154Y54601D01*
X397992Y53611D01*
X398729Y52569D01*
X399389Y51477D01*
X399973Y50334D01*
X400456Y49140D01*
X400837Y47921D01*
X401142Y46677D01*
X401345Y45407D01*
X401446Y44137D01*
X401446Y42867D01*
X401345Y41597D01*
X401142Y40327D01*
X400837Y39082D01*
X400456Y37863D01*
X399973Y36669D01*
X399389Y35526D01*
X398729Y34434D01*
X397992Y33392D01*
X397154Y32402D01*
X396265Y31487D01*
X395300Y30649D01*
X394284Y29887D01*
X393192Y29201D01*
X392048Y28617D01*
X390880Y28109D01*
X389661Y27677D01*
X388442Y27373D01*
X387172Y27144D01*
X385902Y27017D01*
X384606Y26992D01*
X383336Y27068D01*
X382066Y27246D01*
X380822Y27525D01*
X379602Y27881D01*
X378409Y28338D01*
X377240Y28897D01*
X376123Y29532D01*
X375081Y30268D01*
X374091Y31056D01*
X373151Y31945D01*
X372287Y32884D01*
X371500Y33900D01*
X370789Y34967D01*
X370179Y36085D01*
X369646Y37253D01*
X369214Y38472D01*
X368884Y39692D01*
X368630Y40962D01*
X368477Y42232D01*
G54D16*
X257174Y88106D02*
X237619Y88106D01*
X237619Y95439D01*
X238841Y98373D01*
X241286Y99839D01*
X243730Y99839D01*
X246174Y98373D01*
X247397Y95439D01*
X247397Y88106D01*
G54D16*
X237619Y106683D02*
X253508Y106683D01*
X255952Y108150D01*
X257174Y111083D01*
X257174Y114016D01*
X255952Y116950D01*
X253508Y118416D01*
X237619Y118416D01*
G54D16*
X237619Y125260D02*
X257174Y125260D01*
X257174Y135527D01*
G54D16*
X237619Y142371D02*
X257174Y142371D01*
X257174Y152638D01*
G54D16*
X117474Y88106D02*
X97919Y88106D01*
X97919Y95439D01*
X99141Y98373D01*
X101586Y99839D01*
X104030Y99839D01*
X106474Y98373D01*
X107697Y95439D01*
X107697Y88106D01*
G54D16*
X97919Y106683D02*
X113808Y106683D01*
X116252Y108150D01*
X117474Y111083D01*
X117474Y114016D01*
X116252Y116950D01*
X113808Y118416D01*
X97919Y118416D01*
G54D16*
X113808Y125260D02*
X116252Y126727D01*
X117474Y129660D01*
X117474Y132593D01*
X116252Y135527D01*
X113808Y136993D01*
X111363Y136993D01*
X108919Y135527D01*
X107697Y132593D01*
X107697Y129660D01*
X106474Y126727D01*
X104030Y125260D01*
X101586Y125260D01*
X99141Y126727D01*
X97919Y129660D01*
X97919Y132593D01*
X99141Y135527D01*
X101586Y136993D01*
G54D16*
X117474Y143837D02*
X97919Y143837D01*
G54D16*
X117474Y155570D02*
X97919Y155570D01*
G54D16*
X107697Y143837D02*
X107697Y155570D01*
G54D17*
X334746Y25501D02*
X325857Y25501D01*
X331413Y28834D01*
X325857Y32167D01*
X334746Y32167D01*
G54D17*
X334746Y39945D02*
X334746Y35279D01*
X325857Y35279D01*
X325857Y39945D01*
G54D17*
X330302Y35279D02*
X330302Y39945D01*
G54D17*
X334746Y43057D02*
X325857Y43057D01*
X334746Y48390D01*
X325857Y48390D01*
G54D17*
X325857Y51501D02*
X333079Y51501D01*
X334190Y52167D01*
X334746Y53501D01*
X334746Y54834D01*
X334190Y56167D01*
X333079Y56834D01*
X325857Y56834D01*
G54D17*
X201022Y25876D02*
X192133Y25876D01*
X192133Y29209D01*
X192688Y30543D01*
X193799Y31209D01*
X199355Y31209D01*
X200466Y30543D01*
X201022Y29209D01*
X201022Y25876D01*
G54D17*
X193799Y39653D02*
X199355Y39653D01*
X200466Y38987D01*
X201022Y37653D01*
X201022Y36320D01*
X200466Y34987D01*
X199355Y34320D01*
X193799Y34320D01*
X192688Y34987D01*
X192133Y36320D01*
X192133Y37653D01*
X192688Y38987D01*
X193799Y39653D01*
G54D17*
X192133Y42764D02*
X201022Y42764D01*
X195466Y46097D01*
X201022Y49431D01*
X192133Y49431D01*
G54D17*
X201022Y52542D02*
X192133Y52542D01*
X201022Y57875D01*
X192133Y57875D01*
G54D17*
X59196Y34987D02*
X66418Y34987D01*
X67529Y35653D01*
X68085Y36987D01*
X68085Y38320D01*
X67529Y39653D01*
X66418Y40320D01*
X59196Y40320D01*
G54D17*
X68085Y43431D02*
X59196Y43431D01*
X59196Y46764D01*
X59752Y48097D01*
X60863Y48764D01*
X61974Y48764D01*
X63085Y48097D01*
X63641Y46764D01*
X63641Y43431D01*
G36*
X273050Y91281D02*
X276224Y91281D01*
X276224Y138906D01*
X273050Y138906D01*
X273050Y91281D01*
G37*
G54D18*
X273050Y91281D02*
X276224Y91281D01*
X276224Y138906D01*
X273050Y138906D01*
X273050Y91281D01*
G36*
X266700Y138906D02*
X282574Y138906D01*
X275034Y150018D01*
X266700Y138906D01*
G37*
G54D18*
X266700Y138906D02*
X282574Y138906D01*
X275034Y150018D01*
X266700Y138906D01*
G36*
X136524Y148431D02*
X133350Y148431D01*
X133350Y100806D01*
X136524Y100806D01*
X136524Y148431D01*
G37*
G54D18*
X136524Y148431D02*
X133350Y148431D01*
X133350Y100806D01*
X136524Y100806D01*
X136524Y148431D01*
G36*
X142874Y100806D02*
X127000Y100806D01*
X134540Y89694D01*
X142874Y100806D01*
G37*
G54D18*
X142874Y100806D02*
X127000Y100806D01*
X134540Y89694D01*
X142874Y100806D01*
M02*
