%FSLAX34Y34*%
%MOMM*%
%LNSOLDERMASK_BOTTOM*%
G71*
G01*
%ADD10C,1.800*%
%ADD11C,2.000*%
%ADD12R,1.470X0.759*%
%ADD13R,0.759X1.470*%
%ADD14R,1.500X1.800*%
%ADD15R,2.100X0.800*%
%ADD16C,1.500*%
%ADD17R,1.500X1.600*%
%ADD18R,1.800X1.500*%
%ADD19C,1.600*%
%ADD20C,2.200*%
%ADD21R,1.700X5.200*%
%ADD22R,2.200X1.800*%
%ADD23R,0.860X2.232*%
%LPD*%
G36*
X60850Y202006D02*
X78850Y202006D01*
X78850Y184006D01*
X60850Y184006D01*
X60850Y202006D01*
G37*
X69849Y218406D02*
G54D10*
D03*
X69850Y243806D02*
G54D10*
D03*
X69850Y269206D02*
G54D10*
D03*
X150748Y66006D02*
G54D11*
D03*
X85724Y66006D02*
G54D11*
D03*
X85724Y20998D02*
G54D11*
D03*
X150748Y20998D02*
G54D11*
D03*
X219074Y66006D02*
G54D11*
D03*
X284098Y66006D02*
G54D11*
D03*
X284098Y20997D02*
G54D11*
D03*
X219075Y20998D02*
G54D11*
D03*
X352424Y66006D02*
G54D11*
D03*
X417448Y66006D02*
G54D11*
D03*
X417448Y20997D02*
G54D11*
D03*
X352425Y20998D02*
G54D11*
D03*
X216698Y189133D02*
G54D12*
D03*
X216698Y181132D02*
G54D12*
D03*
X216698Y173131D02*
G54D12*
D03*
X216698Y165130D02*
G54D12*
D03*
X216698Y157129D02*
G54D12*
D03*
X216698Y149128D02*
G54D12*
D03*
X216698Y141127D02*
G54D12*
D03*
X216698Y133126D02*
G54D12*
D03*
X130846Y133126D02*
G54D12*
D03*
X130846Y141127D02*
G54D12*
D03*
X130846Y149128D02*
G54D12*
D03*
X130846Y157129D02*
G54D12*
D03*
X130846Y165130D02*
G54D12*
D03*
X130846Y173131D02*
G54D12*
D03*
X130846Y181132D02*
G54D12*
D03*
X130846Y189133D02*
G54D12*
D03*
X145782Y204068D02*
G54D13*
D03*
X153782Y204068D02*
G54D13*
D03*
X161784Y204068D02*
G54D13*
D03*
X169784Y204068D02*
G54D13*
D03*
X177786Y204068D02*
G54D13*
D03*
X185786Y204068D02*
G54D13*
D03*
X193788Y204068D02*
G54D13*
D03*
X201788Y204068D02*
G54D13*
D03*
X201788Y118216D02*
G54D13*
D03*
X193788Y118216D02*
G54D13*
D03*
X185786Y118216D02*
G54D13*
D03*
X177786Y118216D02*
G54D13*
D03*
X169784Y118216D02*
G54D13*
D03*
X161784Y118216D02*
G54D13*
D03*
X153782Y118216D02*
G54D13*
D03*
X145782Y118216D02*
G54D13*
D03*
G36*
X135436Y242129D02*
X135436Y260129D01*
X153436Y260129D01*
X153436Y242129D01*
X135436Y242129D01*
G37*
X169835Y251129D02*
G54D10*
D03*
X195235Y251128D02*
G54D10*
D03*
X220635Y251128D02*
G54D10*
D03*
X246035Y251128D02*
G54D10*
D03*
X271435Y251128D02*
G54D10*
D03*
X253137Y205427D02*
G54D14*
D03*
X274518Y205427D02*
G54D14*
D03*
X258643Y144706D02*
G54D15*
D03*
X258644Y156612D02*
G54D15*
D03*
X259040Y168518D02*
G54D15*
D03*
X297933Y141531D02*
G54D16*
D03*
X297562Y163730D02*
G54D16*
D03*
X257825Y278428D02*
G54D17*
D03*
X238825Y278428D02*
G54D17*
D03*
X101429Y162666D02*
G54D18*
D03*
X101430Y184048D02*
G54D18*
D03*
X377928Y153610D02*
G54D19*
D03*
X75998Y132480D02*
G54D20*
D03*
X75997Y107081D02*
G54D20*
D03*
X327024Y136650D02*
G54D21*
D03*
X352424Y136650D02*
G54D21*
D03*
X377824Y136650D02*
G54D21*
D03*
X403224Y136650D02*
G54D21*
D03*
X428624Y136650D02*
G54D21*
D03*
X119647Y81414D02*
G54D22*
D03*
X119648Y49446D02*
G54D22*
D03*
X330841Y270818D02*
G54D23*
D03*
X343541Y270818D02*
G54D23*
D03*
X356241Y270818D02*
G54D23*
D03*
X368941Y270818D02*
G54D23*
D03*
X381641Y209350D02*
G54D23*
D03*
X394341Y209350D02*
G54D23*
D03*
X407041Y209350D02*
G54D23*
D03*
X419741Y209350D02*
G54D23*
D03*
X419741Y270818D02*
G54D23*
D03*
X407041Y270818D02*
G54D23*
D03*
X394341Y270818D02*
G54D23*
D03*
X381641Y270818D02*
G54D23*
D03*
X368941Y209350D02*
G54D23*
D03*
X356241Y209350D02*
G54D23*
D03*
X343541Y209350D02*
G54D23*
D03*
X330841Y209350D02*
G54D23*
D03*
M02*
