%FSLAX34Y34*%
%MOMM*%
%LNSOLDERMASK_TOP*%
G71*
G01*
%ADD10C,0.299*%
%ADD11R,0.759X1.470*%
%ADD12R,1.470X0.759*%
%ADD13C,2.000*%
%ADD14R,0.860X2.232*%
%ADD15C,1.800*%
%ADD16R,0.901X4.300*%
%ADD17C,2.100*%
%ADD18R,1.500X1.800*%
%ADD19R,1.600X1.500*%
%ADD20R,1.800X1.200*%
%ADD21R,1.800X1.500*%
%ADD22R,2.200X1.800*%
%ADD23R,1.600X0.700*%
%LPD*%
G36*
X371138Y200665D02*
X390938Y200665D01*
X390938Y180865D01*
X371138Y180865D01*
X371138Y200665D01*
G37*
G36*
X371138Y284181D02*
X390938Y284181D01*
X390938Y264381D01*
X371138Y264381D01*
X371138Y284181D01*
G37*
G54D10*
X359270Y247026D02*
X346773Y247026D01*
X346773Y244029D01*
X359270Y244029D01*
X359270Y247026D01*
G54D10*
X346773Y221017D02*
X359270Y221017D01*
X359270Y218020D01*
X346773Y218020D01*
X346773Y221017D01*
G54D10*
X359270Y220915D02*
X346773Y220915D01*
G36*
X343741Y216302D02*
X355799Y216302D01*
X355799Y204244D01*
X343741Y204244D01*
X343741Y216302D01*
G37*
G36*
X343741Y260802D02*
X355799Y260802D01*
X355799Y248744D01*
X343741Y248744D01*
X343741Y260802D01*
G37*
X141668Y227316D02*
G54D11*
D03*
X133667Y227316D02*
G54D11*
D03*
X125666Y227316D02*
G54D11*
D03*
X117665Y227316D02*
G54D11*
D03*
X109664Y227316D02*
G54D11*
D03*
X101663Y227316D02*
G54D11*
D03*
X93662Y227316D02*
G54D11*
D03*
X85661Y227316D02*
G54D11*
D03*
X85661Y141464D02*
G54D11*
D03*
X93662Y141464D02*
G54D11*
D03*
X101663Y141464D02*
G54D11*
D03*
X109664Y141464D02*
G54D11*
D03*
X117665Y141464D02*
G54D11*
D03*
X125666Y141464D02*
G54D11*
D03*
X133667Y141464D02*
G54D11*
D03*
X141668Y141464D02*
G54D11*
D03*
X156603Y156399D02*
G54D12*
D03*
X156603Y164400D02*
G54D12*
D03*
X156603Y172401D02*
G54D12*
D03*
X156603Y180402D02*
G54D12*
D03*
X156603Y188403D02*
G54D12*
D03*
X156603Y196404D02*
G54D12*
D03*
X156603Y204405D02*
G54D12*
D03*
X156603Y212406D02*
G54D12*
D03*
X70751Y212406D02*
G54D12*
D03*
X70751Y204405D02*
G54D12*
D03*
X70751Y196404D02*
G54D12*
D03*
X70751Y188403D02*
G54D12*
D03*
X70751Y180402D02*
G54D12*
D03*
X70751Y172401D02*
G54D12*
D03*
X70751Y164400D02*
G54D12*
D03*
X70751Y156399D02*
G54D12*
D03*
X26276Y66051D02*
G54D13*
D03*
X26276Y21043D02*
G54D13*
D03*
X91300Y21043D02*
G54D13*
D03*
X91300Y66051D02*
G54D13*
D03*
X169126Y66051D02*
G54D13*
D03*
X234150Y66051D02*
G54D13*
D03*
X234150Y21043D02*
G54D13*
D03*
X169126Y21043D02*
G54D13*
D03*
X197675Y176592D02*
G54D14*
D03*
X210375Y176592D02*
G54D14*
D03*
X223075Y176592D02*
G54D14*
D03*
X235775Y176592D02*
G54D14*
D03*
X248475Y176592D02*
G54D14*
D03*
X261175Y176592D02*
G54D14*
D03*
X273875Y176592D02*
G54D14*
D03*
X286575Y176592D02*
G54D14*
D03*
X286575Y238060D02*
G54D14*
D03*
X273875Y238060D02*
G54D14*
D03*
X261175Y238060D02*
G54D14*
D03*
X248475Y238060D02*
G54D14*
D03*
X235775Y238060D02*
G54D14*
D03*
X223075Y238060D02*
G54D14*
D03*
X210375Y238060D02*
G54D14*
D03*
X197675Y238060D02*
G54D14*
D03*
G36*
X215802Y294863D02*
X233802Y294863D01*
X233802Y276863D01*
X215802Y276863D01*
X215802Y294863D01*
G37*
G36*
X14482Y151353D02*
X32482Y151353D01*
X32482Y133353D01*
X14482Y133353D01*
X14482Y151353D01*
G37*
X23482Y167753D02*
G54D15*
D03*
X23482Y193153D02*
G54D15*
D03*
X23482Y218553D02*
G54D15*
D03*
X23482Y243953D02*
G54D15*
D03*
X23482Y269353D02*
G54D15*
D03*
X250202Y285863D02*
G54D15*
D03*
X275602Y285863D02*
G54D15*
D03*
X301002Y285863D02*
G54D15*
D03*
X326402Y285863D02*
G54D15*
D03*
X126200Y269988D02*
G54D16*
D03*
X111188Y269988D02*
G54D16*
D03*
X96177Y269988D02*
G54D16*
D03*
X351650Y25849D02*
G54D15*
D03*
X376650Y50849D02*
G54D15*
D03*
X326650Y50849D02*
G54D15*
D03*
X374934Y120212D02*
G54D17*
D03*
G36*
X364434Y135112D02*
X364434Y156112D01*
X385434Y156112D01*
X385434Y135112D01*
X364434Y135112D01*
G37*
X93662Y111125D02*
G54D18*
D03*
X115044Y111125D02*
G54D18*
D03*
X267072Y136897D02*
G54D19*
D03*
X267072Y117103D02*
G54D19*
D03*
X189598Y155624D02*
G54D20*
D03*
X189598Y115937D02*
G54D20*
D03*
X310729Y137690D02*
G54D21*
D03*
X310729Y116309D02*
G54D21*
D03*
X225797Y136897D02*
G54D19*
D03*
X225797Y117103D02*
G54D19*
D03*
X325546Y239822D02*
G54D22*
D03*
X325546Y207854D02*
G54D22*
D03*
X353022Y245528D02*
G54D23*
D03*
X353022Y219518D02*
G54D23*
D03*
M02*
