%FSLAX34Y34*%
%MOMM*%
%LNCOPPER_BOTTOM*%
G71*
G01*
%ADD10C,2.600*%
%ADD11C,2.400*%
%ADD12C,1.610*%
%ADD13C,1.054*%
%ADD14C,0.900*%
%ADD15C,2.700*%
%ADD16C,0.973*%
%ADD17C,0.938*%
%ADD18C,0.614*%
%ADD19C,0.604*%
%ADD20C,0.912*%
%ADD21C,0.930*%
%ADD22C,0.811*%
%ADD23C,0.709*%
%ADD24C,0.478*%
%ADD25C,0.559*%
%ADD26C,0.494*%
%ADD27C,0.747*%
%ADD28C,1.273*%
%ADD29C,1.800*%
%ADD30C,1.600*%
%ADD31C,0.810*%
%ADD32C,0.254*%
%ADD33C,0.100*%
%ADD34C,1.900*%
%LPD*%
G36*
X-48412Y351686D02*
X435588Y351686D01*
X435588Y-43314D01*
X-48412Y-43314D01*
X-48412Y351686D01*
G37*
%LPC*%
G36*
X368138Y203665D02*
X393938Y203665D01*
X393938Y177865D01*
X368138Y177865D01*
X368138Y203665D01*
G37*
G36*
X368138Y287181D02*
X393938Y287181D01*
X393938Y261381D01*
X368138Y261381D01*
X368138Y287181D01*
G37*
G36*
X340741Y219302D02*
X358799Y219302D01*
X358799Y201244D01*
X340741Y201244D01*
X340741Y219302D01*
G37*
G36*
X340741Y263802D02*
X358799Y263802D01*
X358799Y245744D01*
X340741Y245744D01*
X340741Y263802D01*
G37*
X26276Y66051D02*
G54D10*
D03*
X26276Y21043D02*
G54D10*
D03*
X91300Y21043D02*
G54D10*
D03*
X91300Y66051D02*
G54D10*
D03*
X169126Y66051D02*
G54D10*
D03*
X234150Y66051D02*
G54D10*
D03*
X234150Y21043D02*
G54D10*
D03*
X169126Y21043D02*
G54D10*
D03*
G36*
X212802Y297863D02*
X236802Y297863D01*
X236802Y273863D01*
X212802Y273863D01*
X212802Y297863D01*
G37*
G36*
X11482Y154353D02*
X35482Y154353D01*
X35482Y130353D01*
X11482Y130353D01*
X11482Y154353D01*
G37*
X23482Y167753D02*
G54D11*
D03*
X23482Y193153D02*
G54D11*
D03*
X23482Y218553D02*
G54D11*
D03*
X23482Y243953D02*
G54D11*
D03*
X23482Y269353D02*
G54D11*
D03*
X250202Y285863D02*
G54D11*
D03*
X275602Y285863D02*
G54D11*
D03*
X301002Y285863D02*
G54D11*
D03*
X326402Y285863D02*
G54D11*
D03*
X118478Y128637D02*
G54D12*
D03*
X85458Y154037D02*
G54D12*
D03*
X100698Y169277D02*
G54D12*
D03*
X100698Y188327D02*
G54D12*
D03*
X101968Y201027D02*
G54D12*
D03*
X112128Y204837D02*
G54D12*
D03*
X113398Y214997D02*
G54D12*
D03*
X86728Y202297D02*
G54D12*
D03*
X76568Y226427D02*
G54D12*
D03*
X76568Y237857D02*
G54D12*
D03*
X143878Y188327D02*
G54D12*
D03*
X181978Y226427D02*
G54D12*
D03*
X279768Y221347D02*
G54D12*
D03*
X287388Y214997D02*
G54D12*
D03*
X298818Y226427D02*
G54D12*
D03*
X296278Y237857D02*
G54D12*
D03*
X209918Y98157D02*
G54D12*
D03*
X176898Y91807D02*
G54D12*
D03*
X165468Y103237D02*
G54D12*
D03*
X167690Y140384D02*
G54D12*
D03*
X204838Y146417D02*
G54D12*
D03*
X212458Y66407D02*
G54D12*
D03*
X198488Y52437D02*
G54D12*
D03*
G54D13*
X287388Y214997D02*
X298818Y226427D01*
G54D13*
X296278Y237857D02*
X279768Y221347D01*
G54D13*
X181978Y226427D02*
X143878Y188327D01*
G54D13*
X112128Y204837D02*
X109588Y207377D01*
X107048Y207377D01*
X76568Y237857D01*
G54D13*
X76568Y226427D02*
X101968Y201027D01*
G54D13*
X100698Y188327D02*
X86728Y202297D01*
G54D13*
X100698Y169277D02*
X85458Y154037D01*
G54D13*
X198488Y52437D02*
X212458Y66407D01*
G54D13*
X176898Y91807D02*
X165468Y103237D01*
G54D13*
X167690Y140384D02*
X209918Y98157D01*
X351650Y25849D02*
G54D11*
D03*
X376650Y50849D02*
G54D11*
D03*
X326650Y50849D02*
G54D11*
D03*
G54D14*
X15876Y303212D02*
X388938Y303212D01*
G54D14*
G75*
G01X15876Y303212D02*
G03X0Y287337I0J-15875D01*
G01*
G54D14*
G75*
G01X404813Y287337D02*
G03X388938Y303212I-15875J0D01*
G01*
G54D14*
G75*
G01X388938Y0D02*
G03X404814Y15875I0J15875D01*
G01*
G54D14*
G75*
G01X0Y15874D02*
G03X15876Y0I15876J0D01*
G01*
G54D14*
X0Y287337D02*
X0Y15874D01*
G54D14*
X404813Y287337D02*
X404814Y15875D01*
G54D14*
X388938Y0D02*
X15876Y0D01*
X374934Y120212D02*
G54D15*
D03*
G36*
X361434Y132112D02*
X361434Y159112D01*
X388434Y159112D01*
X388434Y132112D01*
X361434Y132112D01*
G37*
%LPD*%
G54D16*
G36*
X376173Y190765D02*
X376173Y204165D01*
X385903Y204165D01*
X385903Y190765D01*
X376173Y190765D01*
G37*
G36*
X381038Y195630D02*
X394438Y195630D01*
X394438Y185900D01*
X381038Y185900D01*
X381038Y195630D01*
G37*
G36*
X385903Y190765D02*
X385903Y177365D01*
X376173Y177365D01*
X376173Y190765D01*
X385903Y190765D01*
G37*
G36*
X381038Y185900D02*
X367638Y185900D01*
X367638Y195630D01*
X381038Y195630D01*
X381038Y185900D01*
G37*
G54D17*
G36*
X376351Y274281D02*
X376351Y287681D01*
X385725Y287681D01*
X385725Y274281D01*
X376351Y274281D01*
G37*
G36*
X381038Y278968D02*
X394438Y278968D01*
X394438Y269594D01*
X381038Y269594D01*
X381038Y278968D01*
G37*
G36*
X385725Y274281D02*
X385725Y260881D01*
X376351Y260881D01*
X376351Y274281D01*
X385725Y274281D01*
G37*
G36*
X381038Y269594D02*
X367638Y269594D01*
X367638Y278968D01*
X381038Y278968D01*
X381038Y269594D01*
G37*
G54D18*
G36*
X346702Y210273D02*
X346702Y219802D01*
X352838Y219802D01*
X352838Y210273D01*
X346702Y210273D01*
G37*
G36*
X349770Y213341D02*
X359299Y213341D01*
X359299Y207205D01*
X349770Y207205D01*
X349770Y213341D01*
G37*
G36*
X352838Y210273D02*
X352838Y200744D01*
X346702Y200744D01*
X346702Y210273D01*
X352838Y210273D01*
G37*
G36*
X349770Y207205D02*
X340241Y207205D01*
X340241Y213341D01*
X349770Y213341D01*
X349770Y207205D01*
G37*
G54D19*
G36*
X346753Y254773D02*
X346753Y264302D01*
X352787Y264302D01*
X352787Y254773D01*
X346753Y254773D01*
G37*
G36*
X349770Y257790D02*
X359299Y257790D01*
X359299Y251756D01*
X349770Y251756D01*
X349770Y257790D01*
G37*
G36*
X352787Y254773D02*
X352787Y245244D01*
X346753Y245244D01*
X346753Y254773D01*
X352787Y254773D01*
G37*
G36*
X349770Y251756D02*
X340241Y251756D01*
X340241Y257790D01*
X349770Y257790D01*
X349770Y251756D01*
G37*
G54D20*
G36*
X21716Y21043D02*
X21716Y34543D01*
X30836Y34543D01*
X30836Y21043D01*
X21716Y21043D01*
G37*
G36*
X26276Y25603D02*
X39776Y25603D01*
X39776Y16483D01*
X26276Y16483D01*
X26276Y25603D01*
G37*
G36*
X30836Y21043D02*
X30836Y7543D01*
X21716Y7543D01*
X21716Y21043D01*
X30836Y21043D01*
G37*
G36*
X26276Y16483D02*
X12776Y16483D01*
X12776Y25603D01*
X26276Y25603D01*
X26276Y16483D01*
G37*
G54D21*
G36*
X164476Y21043D02*
X164476Y34543D01*
X173776Y34543D01*
X173776Y21043D01*
X164476Y21043D01*
G37*
G36*
X169126Y25693D02*
X182626Y25693D01*
X182626Y16393D01*
X169126Y16393D01*
X169126Y25693D01*
G37*
G36*
X173776Y21043D02*
X173776Y7543D01*
X164476Y7543D01*
X164476Y21043D01*
X173776Y21043D01*
G37*
G36*
X169126Y16393D02*
X155626Y16393D01*
X155626Y25693D01*
X169126Y25693D01*
X169126Y16393D01*
G37*
G54D22*
G36*
X19429Y142353D02*
X19429Y154853D01*
X27535Y154853D01*
X27535Y142353D01*
X19429Y142353D01*
G37*
G36*
X23482Y146406D02*
X35982Y146406D01*
X35982Y138300D01*
X23482Y138300D01*
X23482Y146406D01*
G37*
G36*
X27535Y142353D02*
X27535Y129853D01*
X19429Y129853D01*
X19429Y142353D01*
X27535Y142353D01*
G37*
G36*
X23482Y138300D02*
X10982Y138300D01*
X10982Y146406D01*
X23482Y146406D01*
X23482Y138300D01*
G37*
G54D23*
G36*
X19935Y167753D02*
X19935Y180253D01*
X27029Y180253D01*
X27029Y167753D01*
X19935Y167753D01*
G37*
G36*
X23482Y171300D02*
X35982Y171300D01*
X35982Y164206D01*
X23482Y164206D01*
X23482Y171300D01*
G37*
G36*
X27029Y167753D02*
X27029Y155253D01*
X19935Y155253D01*
X19935Y167753D01*
X27029Y167753D01*
G37*
G36*
X23482Y164206D02*
X10982Y164206D01*
X10982Y171300D01*
X23482Y171300D01*
X23482Y164206D01*
G37*
G54D24*
G36*
X116088Y128637D02*
X116088Y137187D01*
X120868Y137187D01*
X120868Y128637D01*
X116088Y128637D01*
G37*
G36*
X118478Y131026D02*
X127028Y131026D01*
X127028Y126248D01*
X118478Y126248D01*
X118478Y131026D01*
G37*
G36*
X120868Y128637D02*
X120868Y120087D01*
X116088Y120087D01*
X116088Y128637D01*
X120868Y128637D01*
G37*
G36*
X118478Y126248D02*
X109928Y126248D01*
X109928Y131026D01*
X118478Y131026D01*
X118478Y126248D01*
G37*
G54D25*
G36*
X110604Y214997D02*
X110604Y223547D01*
X116192Y223547D01*
X116192Y214997D01*
X110604Y214997D01*
G37*
G36*
X113398Y217792D02*
X121948Y217792D01*
X121948Y212202D01*
X113398Y212202D01*
X113398Y217792D01*
G37*
G54D26*
G36*
X202368Y146417D02*
X202368Y154967D01*
X207308Y154967D01*
X207308Y146417D01*
X202368Y146417D01*
G37*
G36*
X204838Y148888D02*
X213388Y148888D01*
X213388Y143946D01*
X204838Y143946D01*
X204838Y148888D01*
G37*
G36*
X207308Y146417D02*
X207308Y137867D01*
X202368Y137867D01*
X202368Y146417D01*
X207308Y146417D01*
G37*
G36*
X204838Y143946D02*
X196288Y143946D01*
X196288Y148888D01*
X204838Y148888D01*
X204838Y143946D01*
G37*
G54D27*
G36*
X322916Y50849D02*
X322916Y63349D01*
X330383Y63349D01*
X330383Y50849D01*
X322916Y50849D01*
G37*
G36*
X326650Y54582D02*
X339150Y54582D01*
X339150Y47116D01*
X326650Y47116D01*
X326650Y54582D01*
G37*
G36*
X330383Y50849D02*
X330383Y38349D01*
X322916Y38349D01*
X322916Y50849D01*
X330383Y50849D01*
G37*
G36*
X326650Y47116D02*
X314150Y47116D01*
X314150Y54582D01*
X326650Y54582D01*
X326650Y47116D01*
G37*
G54D28*
G36*
X374934Y113847D02*
X360934Y113847D01*
X360934Y126577D01*
X374934Y126577D01*
X374934Y113847D01*
G37*
G36*
X374934Y126577D02*
X388934Y126577D01*
X388934Y113847D01*
X374934Y113847D01*
X374934Y126577D01*
G37*
G36*
X381299Y120212D02*
X381299Y106212D01*
X368569Y106212D01*
X368569Y120212D01*
X381299Y120212D01*
G37*
G36*
X372138Y199665D02*
X389938Y199665D01*
X389938Y181865D01*
X372138Y181865D01*
X372138Y199665D01*
G37*
G36*
X372138Y283181D02*
X389938Y283181D01*
X389938Y265381D01*
X372138Y265381D01*
X372138Y283181D01*
G37*
G36*
X344741Y215302D02*
X354799Y215302D01*
X354799Y205244D01*
X344741Y205244D01*
X344741Y215302D01*
G37*
G36*
X344741Y259802D02*
X354799Y259802D01*
X354799Y249744D01*
X344741Y249744D01*
X344741Y259802D01*
G37*
X26276Y66051D02*
G54D29*
D03*
X26276Y21043D02*
G54D29*
D03*
X91300Y21043D02*
G54D29*
D03*
X91300Y66051D02*
G54D29*
D03*
X169126Y66051D02*
G54D29*
D03*
X234150Y66051D02*
G54D29*
D03*
X234150Y21043D02*
G54D29*
D03*
X169126Y21043D02*
G54D29*
D03*
G36*
X216802Y293863D02*
X232802Y293863D01*
X232802Y277863D01*
X216802Y277863D01*
X216802Y293863D01*
G37*
G36*
X15482Y150353D02*
X31482Y150353D01*
X31482Y134353D01*
X15482Y134353D01*
X15482Y150353D01*
G37*
X23482Y167753D02*
G54D30*
D03*
X23482Y193153D02*
G54D30*
D03*
X23482Y218553D02*
G54D30*
D03*
X23482Y243953D02*
G54D30*
D03*
X23482Y269353D02*
G54D30*
D03*
X250202Y285863D02*
G54D30*
D03*
X275602Y285863D02*
G54D30*
D03*
X301002Y285863D02*
G54D30*
D03*
X326402Y285863D02*
G54D30*
D03*
X118478Y128637D02*
G54D31*
D03*
X85458Y154037D02*
G54D31*
D03*
X100698Y169277D02*
G54D31*
D03*
X100698Y188327D02*
G54D31*
D03*
X101968Y201027D02*
G54D31*
D03*
X112128Y204837D02*
G54D31*
D03*
X113398Y214997D02*
G54D31*
D03*
X86728Y202297D02*
G54D31*
D03*
X76568Y226427D02*
G54D31*
D03*
X76568Y237857D02*
G54D31*
D03*
X143878Y188327D02*
G54D31*
D03*
X181978Y226427D02*
G54D31*
D03*
X279768Y221347D02*
G54D31*
D03*
X287388Y214997D02*
G54D31*
D03*
X298818Y226427D02*
G54D31*
D03*
X296278Y237857D02*
G54D31*
D03*
X209918Y98157D02*
G54D31*
D03*
X176898Y91807D02*
G54D31*
D03*
X165468Y103237D02*
G54D31*
D03*
X167690Y140384D02*
G54D31*
D03*
X204838Y146417D02*
G54D31*
D03*
X212458Y66407D02*
G54D31*
D03*
X198488Y52437D02*
G54D31*
D03*
G54D32*
X287388Y214997D02*
X298818Y226427D01*
G54D32*
X296278Y237857D02*
X279768Y221347D01*
G54D32*
X181978Y226427D02*
X143878Y188327D01*
G54D32*
X112128Y204837D02*
X109588Y207377D01*
X107048Y207377D01*
X76568Y237857D01*
G54D32*
X76568Y226427D02*
X101968Y201027D01*
G54D32*
X100698Y188327D02*
X86728Y202297D01*
G54D32*
X100698Y169277D02*
X85458Y154037D01*
G54D32*
X198488Y52437D02*
X212458Y66407D01*
G54D32*
X176898Y91807D02*
X165468Y103237D01*
G54D32*
X167690Y140384D02*
X209918Y98157D01*
X351650Y25849D02*
G54D30*
D03*
X376650Y50849D02*
G54D30*
D03*
X326650Y50849D02*
G54D30*
D03*
G54D33*
X15876Y303212D02*
X388938Y303212D01*
G54D33*
G75*
G01X15876Y303212D02*
G03X0Y287337I0J-15875D01*
G01*
G54D33*
G75*
G01X404813Y287337D02*
G03X388938Y303212I-15875J0D01*
G01*
G54D33*
G75*
G01X388938Y0D02*
G03X404814Y15875I0J15875D01*
G01*
G54D33*
G75*
G01X0Y15874D02*
G03X15876Y0I15876J0D01*
G01*
G54D33*
X0Y287337D02*
X0Y15874D01*
G54D33*
X404813Y287337D02*
X404814Y15875D01*
G54D33*
X388938Y0D02*
X15876Y0D01*
X374934Y120212D02*
G54D34*
D03*
G36*
X365434Y136112D02*
X365434Y155112D01*
X384434Y155112D01*
X384434Y136112D01*
X365434Y136112D01*
G37*
M02*
