; Drill file
; Format: 3.3 (000.000)
M48
METRIC
T01C0.4
T02C0.65
T03C0.8
T04C1.0
%
G05
G90
T01
X008550Y015400
X010070Y016930
X010070Y018830
X010200Y020100
X011210Y020480
X011340Y021500
X008670Y020230
X007660Y022640
X007660Y023790
X014390Y018830
X016770Y014040
X016550Y010320
X017690Y009180
X020990Y009820
X021250Y006640
X019850Y005240
X020480Y014640
X018200Y022640
X027980Y022130
X028740Y021500
X029880Y022640
X029630Y023790
X011850Y012860
T02
X034980Y021030
X034980Y025480
T03
X002350Y014240
X002350Y016780
X002350Y019320
X002350Y021860
X002350Y024400
X002350Y026940
X022480Y028590
X025020Y028590
X027560Y028590
X030100Y028590
X032640Y028590
X037490Y014560
X037490Y012020
X037660Y005080
X035160Y002580
X032660Y005080
T04
X002630Y002100
X002630Y006610
X009130Y006610
X009130Y002100
X016910Y002100
X016910Y006610
X023420Y006610
X023420Y002100
X038100Y019080
X038100Y027430
M30
